<?xml version="1.0" encoding="UTF-8" standalone="no"?>
<svg width="440px" height="640px" version="1.1" viewBox="-18 -300 220 320" xmlns="http://www.w3.org/2000/svg" xmlns:xlink="http://www.w3.org/1999/xlink">
<title>Numerical integration example</title>
<desc>Integration of
 y' = y
using forward-Euler (blue) and mid-point (green) methods with step size '1' and compared with exact solution (red).</desc>
<defs>
	<pattern id="grid" width="50" height="50" x="0" y="0" patternUnits="userSpaceOnUse">
		<path d="M0,0H50 M0,50V0" stroke="black"/>
	</pattern>
</defs>
<rect y="-300" width="210" height="300" fill="url(#grid)"/>
<g fill="none" stroke-width="2">
	<path d="M0,-300v300h210" stroke="black"/>
	<path d="M0,-5L50,-10 100,-20 150,-40 200,-80" stroke="blue"/>
	<path d="M0,-5L50,-12.5 100,-31.25 150,-78.15 200,-195.3" stroke="green"/>
	<path d="M0,-5L12.5,-6.42 25,-8.24 37.5,-10.6 50,-13.6 62.5,-17.45 75,-22.41 87.5,-28.8 100,-36.94 112.5,-47.44 125,-60.9 137.5,-78.2 150,-100.43 162.5,-128.95 175,-165.58 187.5,-212.61 200,-273" stroke="red"/>
</g>
<g fill="black" font-family="New Century Schoolbook" text-anchor="middle" font-size="15">
<text y="14"><tspan x="-5">0</tspan><tspan x="100">2</tspan><tspan x="198">4</tspan></text>
<text x="-9" y="-45">10</text><text x="-9" y="-95">20</text><text x="-9" y="-145">30</text>
<text x="-9" y="-195">40</text><text x="-9" y="-245">50</text>
</g>
</svg>